<svg width="26" height="22" viewBox="0 0 26 22" fill="none" xmlns="http://www.w3.org/2000/svg">
<path d="M4.17616 2.78407C4.17616 3.30488 3.75397 3.72707 3.23316 3.72707C2.71235 3.72707 2.29015 3.30488 2.29015 2.78407C2.29015 2.26326 2.71235 1.84106 3.23316 1.84106C3.75397 1.84106 4.17616 2.26326 4.17616 2.78407Z" fill="#D9D9D9"/>
<path d="M7.49914 2.78407C7.49914 3.30488 7.07694 3.72707 6.55613 3.72707C6.03533 3.72707 5.61313 3.30488 5.61313 2.78407C5.61313 2.26326 6.03533 1.84106 6.55613 1.84106C7.07694 1.84106 7.49914 2.26326 7.49914 2.78407Z" fill="#D9D9D9"/>
<path d="M10.8221 2.78407C10.8221 3.30488 10.3999 3.72707 9.8791 3.72707C9.35829 3.72707 8.9361 3.30488 8.9361 2.78407C8.9361 2.26326 9.35829 1.84106 9.8791 1.84106C10.3999 1.84106 10.8221 2.26326 10.8221 2.78407Z" fill="#D9D9D9"/>
<path d="M17.6926 8.12769C19.0229 8.12769 20.1384 9.04593 20.4406 10.2831H23.4404V9.20672L26 10.9567L23.4404 12.7067V11.7201H20.4172C20.0841 12.9117 18.9905 13.7857 17.6926 13.7857C16.1301 13.7857 14.8636 12.5191 14.8636 10.9567C14.8636 9.39428 16.1301 8.12769 17.6926 8.12769Z" fill="#2DAC61"/>
<path d="M21.6891 0C22.7555 2.89323e-08 23.62 0.8645 23.62 1.93092V8.48705H22.8567V9.29534H22.4525V1.93092C22.4525 1.50931 22.1107 1.16753 21.6891 1.16753H1.93092C1.50931 1.16753 1.16753 1.50931 1.16753 1.93092V19.9827C1.16753 20.4043 1.50931 20.7461 1.93092 20.7461H21.6891C22.1107 20.7461 22.4525 20.4043 22.4525 19.9827V12.7081H22.8567V13.5164H23.62V19.9827C23.62 21.0491 22.7555 21.9136 21.6891 21.9136H1.93092C0.8645 21.9136 9.76401e-09 21.0491 0 19.9827V1.93092C2.6039e-07 0.864501 0.8645 2.89304e-08 1.93092 0H21.6891Z" fill="#465663"/>
<path d="M3.07294 2.86875V2.58631H3.21607C3.22755 2.58631 3.24005 2.58963 3.25358 2.59626C3.2671 2.60264 3.27858 2.61259 3.28802 2.62611C3.29772 2.63938 3.30256 2.65622 3.30256 2.67663C3.30256 2.6973 3.29759 2.7149 3.28764 2.72944C3.27769 2.74373 3.26557 2.75458 3.25128 2.76197C3.23725 2.76937 3.22398 2.77307 3.21148 2.77307H3.10814V2.72715H3.19234C3.20076 2.72715 3.20982 2.72294 3.21951 2.71452C3.22946 2.7061 3.23444 2.69347 3.23444 2.67663C3.23444 2.65928 3.22946 2.64754 3.21951 2.64142C3.20982 2.6353 3.20127 2.63224 3.19387 2.63224H3.13493V2.86875H3.07294ZM3.24363 2.73557L3.31404 2.86875H3.24592L3.17703 2.73557H3.24363ZM3.18009 3.03715C3.13774 3.03715 3.09807 3.02924 3.06107 3.01342C3.02408 2.9976 2.99154 2.97566 2.96348 2.94759C2.93541 2.91953 2.91347 2.88699 2.89765 2.85C2.88183 2.813 2.87392 2.77333 2.87392 2.73098C2.87392 2.68862 2.88183 2.64895 2.89765 2.61195C2.91347 2.57496 2.93541 2.54243 2.96348 2.51436C2.99154 2.48629 3.02408 2.46435 3.06107 2.44853C3.09807 2.43271 3.13774 2.4248 3.18009 2.4248C3.22245 2.4248 3.26212 2.43271 3.29912 2.44853C3.33611 2.46435 3.36864 2.48629 3.39671 2.51436C3.42478 2.54243 3.44672 2.57496 3.46254 2.61195C3.47836 2.64895 3.48627 2.68862 3.48627 2.73098C3.48627 2.77333 3.47836 2.813 3.46254 2.85C3.44672 2.88699 3.42478 2.91953 3.39671 2.94759C3.36864 2.97566 3.33611 2.9976 3.29912 3.01342C3.26212 3.02924 3.22245 3.03715 3.18009 3.03715ZM3.18009 2.96366C3.22296 2.96366 3.262 2.9532 3.29721 2.93228C3.33241 2.91136 3.36048 2.8833 3.3814 2.84809C3.40232 2.81288 3.41278 2.77384 3.41278 2.73098C3.41278 2.68811 3.40232 2.64907 3.3814 2.61386C3.36048 2.57866 3.33241 2.55059 3.29721 2.52967C3.262 2.50875 3.22296 2.49829 3.18009 2.49829C3.13723 2.49829 3.09819 2.50875 3.06298 2.52967C3.02777 2.55059 2.99971 2.57866 2.97879 2.61386C2.95787 2.64907 2.94741 2.68811 2.94741 2.73098C2.94741 2.77384 2.95787 2.81288 2.97879 2.84809C2.99971 2.8833 3.02777 2.91136 3.06298 2.93228C3.09819 2.9532 3.13723 2.96366 3.18009 2.96366Z" fill="#1D3557"/>
</svg>
