<svg width="27" height="22" viewBox="0 0 27 22" fill="none" xmlns="http://www.w3.org/2000/svg">
<g clip-path="url(#paint0_diamond_138_57_clip_path)" data-figma-skip-parse="true"><g transform="matrix(-0.00324211 -0.00863867 -0.00630123 0.00236486 8.24211 9.13867)"><rect x="0" y="0" width="1684.03" height="2171.27" fill="url(#paint0_diamond_138_57)" opacity="1" shape-rendering="crispEdges"/><rect x="0" y="0" width="1684.03" height="2171.27" transform="scale(1 -1)" fill="url(#paint0_diamond_138_57)" opacity="1" shape-rendering="crispEdges"/><rect x="0" y="0" width="1684.03" height="2171.27" transform="scale(-1 1)" fill="url(#paint0_diamond_138_57)" opacity="1" shape-rendering="crispEdges"/><rect x="0" y="0" width="1684.03" height="2171.27" transform="scale(-1)" fill="url(#paint0_diamond_138_57)" opacity="1" shape-rendering="crispEdges"/></g></g><path d="M3.98894 14.3222L9.89325 20.2454V8.72817L3.98894 14.3222ZM10.4617 19.476L11.7947 16.1881V11.7662L10.4617 9.22193V19.476ZM0.568421 5.00096V10.8906L3.58733 13.9195L9.76696 8.06483L3.58233 2.05894L0.568421 5.00096ZM10.503 8.07649L11.7947 10.5417V5.91188L10.503 8.07649ZM3.98922 1.66177L10.1175 7.6127L11.7292 4.9127L8.11249 0.754456H4.91929L3.98922 1.66177ZM12.3632 16.2994L10.2796 21.4383L0 11.1256V4.76171L0.0857628 4.67817L4.60482 0.266802L4.68781 0.186035H8.37144L8.45665 0.283733L12.3632 4.77504V16.2994Z" data-figma-gradient-fill="{&#34;type&#34;:&#34;GRADIENT_DIAMOND&#34;,&#34;stops&#34;:[{&#34;color&#34;:{&#34;r&#34;:0.53725492954254150,&#34;g&#34;:0.98431372642517090,&#34;b&#34;:0.99215686321258545,&#34;a&#34;:1.0},&#34;position&#34;:0.52884614467620850},{&#34;color&#34;:{&#34;r&#34;:0.050980392843484879,&#34;g&#34;:0.40000000596046448,&#34;b&#34;:0.7294117808341980,&#34;a&#34;:1.0},&#34;position&#34;:0.99989998340606689}],&#34;stopsVar&#34;:[{&#34;color&#34;:{&#34;r&#34;:0.53725492954254150,&#34;g&#34;:0.98431372642517090,&#34;b&#34;:0.99215686321258545,&#34;a&#34;:1.0},&#34;position&#34;:0.52884614467620850},{&#34;color&#34;:{&#34;r&#34;:0.050980392843484879,&#34;g&#34;:0.40000000596046448,&#34;b&#34;:0.7294117808341980,&#34;a&#34;:1.0},&#34;position&#34;:0.99989998340606689}],&#34;transform&#34;:{&#34;m00&#34;:-6.4842143058776855,&#34;m01&#34;:-12.602469444274902,&#34;m02&#34;:17.785448074340820,&#34;m10&#34;:-17.277332305908203,&#34;m11&#34;:4.7297291755676270,&#34;m12&#34;:15.412467956542969},&#34;opacity&#34;:1.0,&#34;blendMode&#34;:&#34;NORMAL&#34;,&#34;visible&#34;:true}"/>
<path d="M13.3579 3.55359C13.3579 2.43047 14.0194 1.41273 15.0457 0.956563L16.6469 0.244926C17.1657 0.0143234 17.7418 -0.0555426 18.3008 0.0442581L21.5079 0.616842L21.5986 0.63294L24.5456 3.68931C25.2114 4.37979 25.4225 5.3461 25.4968 6.21779C25.5423 6.75117 25.6727 7.277 25.8462 7.76457C26.0275 8.27393 26.2545 8.73739 26.476 9.11846C26.7775 9.63719 27 10.234 27 10.869V15.1707C27 15.7419 26.828 16.2999 26.5063 16.7719L25.1155 18.8116C24.8982 19.1302 24.6184 19.4011 24.2931 19.6082L22.2389 20.9154C21.7829 21.2056 21.2535 21.3598 20.713 21.3598H18.5103C17.7751 21.3598 17.0685 21.0748 16.5389 20.5649L14.2286 18.34C13.6723 17.8043 13.3579 17.0652 13.3579 16.2928V3.55359ZM21.8842 11.2703C21.8842 11.1133 22.0115 10.9861 22.1684 10.9861C22.3254 10.9861 22.4526 11.1133 22.4526 11.2703C22.4526 12.7615 21.2438 13.9703 19.7526 13.9703H19.1587C18.8213 13.9703 18.5309 14.0255 18.3238 14.1865C17.8078 14.5878 17.7324 15.1276 17.761 15.3561C17.7804 15.5119 17.67 15.6539 17.5142 15.6733C17.3585 15.6928 17.2164 15.5824 17.197 15.4266C17.1476 15.0316 17.2764 14.2808 17.9749 13.7377C18.333 13.4594 18.7803 13.4019 19.1587 13.4019H19.7526C20.9299 13.4019 21.8842 12.4475 21.8842 11.2703ZM25.1371 9.75488C25.2677 9.66781 25.4442 9.7031 25.5312 9.8337C25.8446 10.3038 25.9766 10.7712 25.9698 11.2192C25.9629 11.6644 25.8192 12.0717 25.6109 12.4266C25.1981 13.1296 24.513 13.6587 24.0105 13.935C23.873 14.0106 23.7004 13.9604 23.6247 13.8229C23.5492 13.6854 23.5994 13.5128 23.7369 13.4371C24.1817 13.1925 24.7756 12.7267 25.1207 12.139C25.2913 11.8486 25.3963 11.5363 25.4013 11.2103C25.4063 10.8871 25.3133 10.5315 25.0583 10.149C24.9712 10.0184 25.0065 9.84195 25.1371 9.75488ZM17.3357 4.62993C17.4713 4.55088 17.6455 4.59678 17.7246 4.73234C17.8036 4.86792 17.7577 5.04211 17.6222 5.12119C17.2367 5.34612 16.408 6.40746 17.7257 8.71351C17.8036 8.8498 17.7562 9.02337 17.62 9.10125C17.4837 9.17912 17.3101 9.13179 17.2322 8.9955C15.8216 6.52692 16.5844 5.06822 17.3357 4.62993ZM17.3818 1.62435C17.5293 1.57071 17.6923 1.64672 17.746 1.79421C18.0897 2.73937 17.3897 3.73872 16.384 3.73872H15.6316C15.4746 3.73872 15.3474 3.61147 15.3474 3.45451C15.3474 3.29754 15.4746 3.1703 15.6316 3.1703H16.384C16.9953 3.1703 17.4208 2.56293 17.212 1.98849C17.1583 1.84099 17.2343 1.678 17.3818 1.62435ZM22.4526 7.96413L25.2007 7.62052C25.0693 7.19115 24.9705 6.73431 24.9306 6.26608C24.8592 5.42794 24.6616 4.62854 24.1363 4.08371L21.5084 1.35845L21.1978 1.8672C20.6504 2.76302 20.8069 3.92021 21.5728 4.63826C22.1341 5.16445 22.4526 5.89945 22.4526 6.66881V7.96413ZM13.9263 16.2928C13.9263 16.9107 14.1779 17.5021 14.623 17.9306L16.9333 20.1555C17.357 20.5634 17.9222 20.7913 18.5103 20.7913H20.0752C20.0395 20.7297 20.0269 20.6549 20.0455 20.5804C20.1867 20.0156 19.988 19.5664 19.6558 19.2135C19.3157 18.8522 18.8488 18.6106 18.5259 18.503C18.3995 18.4608 18.3228 18.3386 18.3327 18.2115C17.6379 18.4315 16.9956 18.4012 16.4146 18.1877C15.1691 17.73 14.3378 16.4748 13.9466 15.4968C13.8884 15.3511 13.9594 15.1857 14.1051 15.1274C14.2508 15.0692 14.4162 15.1402 14.4745 15.2859C14.8412 16.2026 15.5874 17.2779 16.6108 17.6539C17.587 18.0126 18.9505 17.776 20.6741 15.7744C20.7765 15.6554 20.9559 15.642 21.0749 15.7444C21.1938 15.8468 21.2073 16.0262 21.1049 16.1452C20.3061 17.0728 19.5471 17.6724 18.8373 18.0114C19.2122 18.1567 19.695 18.4258 20.0696 18.8238C20.4976 19.2785 20.7965 19.9187 20.5967 20.7181C20.5901 20.7444 20.5799 20.7689 20.567 20.7913H20.713C21.1454 20.7913 21.5688 20.6679 21.9336 20.4358L23.9878 19.1288C24.248 18.9632 24.4721 18.7462 24.6458 18.4913L25.2098 17.6636C24.369 17.6405 23.7939 17.2745 23.4271 16.811C23.0573 16.3437 22.9067 15.7888 22.8798 15.4116C22.8686 15.2551 22.9864 15.1192 23.1429 15.108C23.2995 15.0968 23.4354 15.2145 23.4466 15.3711C23.467 15.657 23.5867 16.097 23.8729 16.4585C24.1499 16.8085 24.5905 17.0966 25.2948 17.0966C25.3868 17.0966 25.4682 17.1406 25.5201 17.2085L26.0364 16.4516C26.2938 16.074 26.4316 15.6277 26.4316 15.1707V10.869C26.4316 10.3664 26.2546 9.86883 25.9845 9.40405C25.7792 9.05092 25.5695 8.63141 25.3905 8.16952L22.2323 8.56447C21.8537 8.68801 21.595 8.97626 21.3866 9.38518C21.1696 9.81106 21.0329 10.3119 20.8645 10.8215C20.8034 11.0065 20.6997 11.1806 20.5362 11.3147C20.3721 11.4493 20.1655 11.5289 19.9231 11.5531L19.9089 11.5545H16.6263C16.4694 11.5545 16.3421 11.4273 16.3421 11.2703C16.3421 11.1133 16.4694 10.9861 16.6263 10.9861H19.8773C20.0209 10.9701 20.1134 10.9263 20.1756 10.8753C20.24 10.8225 20.2903 10.747 20.3247 10.643C20.4794 10.1748 20.6373 9.604 20.8803 9.12706C21.0992 8.69756 21.4064 8.30267 21.8842 8.08986V6.66881C21.8842 6.05659 21.6309 5.47165 21.1842 5.05291C20.2218 4.15061 20.0248 2.69649 20.7127 1.57078L20.9983 1.10311L18.2009 0.603798C17.7537 0.52396 17.2929 0.57974 16.8778 0.764221L15.2766 1.47586C14.4555 1.84078 13.9264 2.65508 13.9263 3.55359V16.2928Z" fill="url(#paint1_radial_138_57)"/>
<defs>
<clipPath id="paint0_diamond_138_57_clip_path"><path d="M3.98894 14.3222L9.89325 20.2454V8.72817L3.98894 14.3222ZM10.4617 19.476L11.7947 16.1881V11.7662L10.4617 9.22193V19.476ZM0.568421 5.00096V10.8906L3.58733 13.9195L9.76696 8.06483L3.58233 2.05894L0.568421 5.00096ZM10.503 8.07649L11.7947 10.5417V5.91188L10.503 8.07649ZM3.98922 1.66177L10.1175 7.6127L11.7292 4.9127L8.11249 0.754456H4.91929L3.98922 1.66177ZM12.3632 16.2994L10.2796 21.4383L0 11.1256V4.76171L0.0857628 4.67817L4.60482 0.266802L4.68781 0.186035H8.37144L8.45665 0.283733L12.3632 4.77504V16.2994Z"/></clipPath><linearGradient id="paint0_diamond_138_57" x1="0" y1="0" x2="500" y2="500" gradientUnits="userSpaceOnUse">
<stop offset="0.528846" stop-color="#89FBFD"/>
<stop offset="0.9999" stop-color="#0D66BA"/>
</linearGradient>
<radialGradient id="paint1_radial_138_57" cx="0" cy="0" r="1" gradientUnits="userSpaceOnUse" gradientTransform="translate(20.179 10.6308) rotate(90) scale(10.4447 5.59389)">
<stop offset="0.798077" stop-color="#CBE59A"/>
<stop offset="1" stop-color="#ACED30"/>
</radialGradient>
</defs>
</svg>
