<svg width="290" height="244" viewBox="0 0 290 244" fill="none" xmlns="http://www.w3.org/2000/svg">
<circle cx="36" cy="31" r="10.5" fill="#D9D9D9"/>
<circle cx="73" cy="31" r="10.5" fill="#D9D9D9"/>
<circle cx="110" cy="31" r="10.5" fill="#D9D9D9"/>
<path d="M197 90.5C211.812 90.5 224.234 100.724 227.599 114.5H261V102.515L289.5 122L261 141.485V130.5H227.338C223.628 143.768 211.452 153.5 197 153.5C179.603 153.5 165.5 139.397 165.5 122C165.5 104.603 179.603 90.5 197 90.5Z" fill="#2DAC61"/>
<path d="M241.5 0C253.374 3.2215e-07 263 9.62588 263 21.5V94.5H254.5V103.5H250V21.5C250 16.8056 246.194 13 241.5 13H21.5C16.8056 13 13 16.8056 13 21.5V222.5C13 227.194 16.8056 231 21.5 231H241.5C246.194 231 250 227.194 250 222.5V141.5H254.5V150.5H263V222.5C263 234.374 253.374 244 241.5 244H21.5C9.62588 244 1.08718e-07 234.374 0 222.5V21.5C2.89935e-06 9.62588 9.62588 3.22129e-07 21.5 0H241.5Z" fill="#465663"/>
</svg>
