<svg width="290" height="244" viewBox="0 0 290 244" fill="none" xmlns="http://www.w3.org/2000/svg">
<circle cx="36" cy="31" r="10.5" fill="#2DAC61"/>
<circle cx="73" cy="31" r="10.5" fill="#2DAC61"/>
<circle cx="110" cy="31" r="10.5" fill="#2DAC61"/>
<path d="M197 90.5C211.812 90.5 224.234 100.724 227.599 114.5H261V102.515L289.5 122L261 141.485V130.5H227.338C223.628 143.768 211.452 153.5 197 153.5C179.603 153.5 165.5 139.397 165.5 122C165.5 104.603 179.603 90.5 197 90.5Z" fill="#2DAC61"/>
<path d="M241.5 0C253.374 3.2215e-07 263 9.62588 263 21.5V94.5H254.5V103.5H250V21.5C250 16.8056 246.194 13 241.5 13H21.5C16.8056 13 13 16.8056 13 21.5V222.5C13 227.194 16.8056 231 21.5 231H241.5C246.194 231 250 227.194 250 222.5V141.5H254.5V150.5H263V222.5C263 234.374 253.374 244 241.5 244H21.5C9.62588 244 1.08718e-07 234.374 0 222.5V21.5C2.89935e-06 9.62588 9.62588 3.22129e-07 21.5 0H241.5Z" fill="#266BB4"/>
<path d="M34.7159 32.4432V29.2983H36.3097C36.4375 29.2983 36.5767 29.3352 36.7273 29.4091C36.8778 29.4801 37.0057 29.5909 37.1108 29.7415C37.2188 29.8892 37.2727 30.0767 37.2727 30.304C37.2727 30.5341 37.2173 30.7301 37.1065 30.892C36.9957 31.0511 36.8608 31.1719 36.7017 31.2543C36.5455 31.3366 36.3977 31.3778 36.2585 31.3778H35.108V30.8665H36.0455C36.1392 30.8665 36.2401 30.8196 36.348 30.7259C36.4588 30.6321 36.5142 30.4915 36.5142 30.304C36.5142 30.1108 36.4588 29.9801 36.348 29.9119C36.2401 29.8438 36.1449 29.8097 36.0625 29.8097H35.4062V32.4432H34.7159ZM36.6165 30.9602L37.4006 32.4432H36.642L35.875 30.9602H36.6165ZM35.9091 34.3182C35.4375 34.3182 34.9957 34.2301 34.5838 34.054C34.1719 33.8778 33.8097 33.6335 33.4972 33.321C33.1847 33.0085 32.9403 32.6463 32.7642 32.2344C32.5881 31.8224 32.5 31.3807 32.5 30.9091C32.5 30.4375 32.5881 29.9957 32.7642 29.5838C32.9403 29.1719 33.1847 28.8097 33.4972 28.4972C33.8097 28.1847 34.1719 27.9403 34.5838 27.7642C34.9957 27.5881 35.4375 27.5 35.9091 27.5C36.3807 27.5 36.8224 27.5881 37.2344 27.7642C37.6463 27.9403 38.0085 28.1847 38.321 28.4972C38.6335 28.8097 38.8778 29.1719 39.054 29.5838C39.2301 29.9957 39.3182 30.4375 39.3182 30.9091C39.3182 31.3807 39.2301 31.8224 39.054 32.2344C38.8778 32.6463 38.6335 33.0085 38.321 33.321C38.0085 33.6335 37.6463 33.8778 37.2344 34.054C36.8224 34.2301 36.3807 34.3182 35.9091 34.3182ZM35.9091 33.5C36.3864 33.5 36.821 33.3835 37.2131 33.1506C37.6051 32.9176 37.9176 32.6051 38.1506 32.2131C38.3835 31.821 38.5 31.3864 38.5 30.9091C38.5 30.4318 38.3835 29.9972 38.1506 29.6051C37.9176 29.2131 37.6051 28.9006 37.2131 28.6676C36.821 28.4347 36.3864 28.3182 35.9091 28.3182C35.4318 28.3182 34.9972 28.4347 34.6051 28.6676C34.2131 28.9006 33.9006 29.2131 33.6676 29.6051C33.4347 29.9972 33.3182 30.4318 33.3182 30.9091C33.3182 31.3864 33.4347 31.821 33.6676 32.2131C33.9006 32.6051 34.2131 32.9176 34.6051 33.1506C34.9972 33.3835 35.4318 33.5 35.9091 33.5Z" fill="#266BB4"/>
</svg>
