<svg width="980" height="518" viewBox="0 0 980 518" fill="none" xmlns="http://www.w3.org/2000/svg">
<circle cx="133.5" cy="167.5" r="10.5" fill="white"/>
<circle cx="170.5" cy="167.5" r="10.5" fill="white"/>
<circle cx="207.5" cy="167.5" r="10.5" fill="white"/>
<path d="M294.5 227C309.312 227 321.734 237.224 325.099 251H358.5V239.015L387 258.5L358.5 277.985V267H324.838C321.128 280.268 308.952 290 294.5 290C277.103 290 263 275.897 263 258.5C263 241.103 277.103 227 294.5 227Z" fill="white"/>
<path d="M339 136.5C350.874 136.5 360.5 146.126 360.5 158V231H352V240H347.5V158C347.5 153.306 343.694 149.5 339 149.5H119C114.306 149.5 110.5 153.306 110.5 158V359C110.5 363.694 114.306 367.5 119 367.5H339C343.694 367.5 347.5 363.694 347.5 359V278H352V287H360.5V359C360.5 370.874 350.874 380.5 339 380.5H119C107.126 380.5 97.5 370.874 97.5 359V158C97.5 146.126 107.126 136.5 119 136.5H339Z" fill="white"/>
<path d="M414.57 282L398.54 233H410.3L424.23 276.4H418.35L432.91 233H443.41L457.41 276.4H451.74L466.02 233H476.87L460.84 282H448.66L436.27 243.92H439.49L426.75 282H414.57Z" fill="white"/>
<path d="M498.318 282.56C494.025 282.56 490.245 281.72 486.978 280.04C483.758 278.36 481.261 276.073 479.488 273.18C477.715 270.24 476.828 266.903 476.828 263.17C476.828 259.39 477.691 256.053 479.418 253.16C481.191 250.22 483.595 247.933 486.628 246.3C489.661 244.62 493.091 243.78 496.918 243.78C500.605 243.78 503.918 244.573 506.858 246.16C509.845 247.7 512.201 249.94 513.928 252.88C515.655 255.773 516.518 259.25 516.518 263.31C516.518 263.73 516.495 264.22 516.448 264.78C516.401 265.293 516.355 265.783 516.308 266.25H485.718V259.88H510.568L506.368 261.77C506.368 259.81 505.971 258.107 505.178 256.66C504.385 255.213 503.288 254.093 501.888 253.3C500.488 252.46 498.855 252.04 496.988 252.04C495.121 252.04 493.465 252.46 492.018 253.3C490.618 254.093 489.521 255.237 488.728 256.73C487.935 258.177 487.538 259.903 487.538 261.91V263.59C487.538 265.643 487.981 267.463 488.868 269.05C489.801 270.59 491.085 271.78 492.718 272.62C494.398 273.413 496.358 273.81 498.598 273.81C500.605 273.81 502.355 273.507 503.848 272.9C505.388 272.293 506.788 271.383 508.048 270.17L513.858 276.47C512.131 278.43 509.961 279.947 507.348 281.02C504.735 282.047 501.725 282.56 498.318 282.56Z" fill="white"/>
<path d="M546.048 282.56C542.735 282.56 539.888 281.86 537.508 280.46C535.128 279.06 533.308 276.937 532.048 274.09C530.788 271.197 530.158 267.557 530.158 263.17C530.158 258.737 530.811 255.097 532.118 252.25C533.471 249.403 535.338 247.28 537.718 245.88C540.098 244.48 542.875 243.78 546.048 243.78C549.595 243.78 552.768 244.573 555.568 246.16C558.415 247.747 560.655 249.987 562.288 252.88C563.968 255.773 564.808 259.203 564.808 263.17C564.808 267.09 563.968 270.497 562.288 273.39C560.655 276.283 558.415 278.547 555.568 280.18C552.768 281.767 549.595 282.56 546.048 282.56ZM523.788 282V230.06H534.708V251.97L534.008 263.1L534.218 274.3V282H523.788ZM544.158 273.6C545.978 273.6 547.588 273.18 548.988 272.34C550.435 271.5 551.578 270.31 552.418 268.77C553.305 267.183 553.748 265.317 553.748 263.17C553.748 260.977 553.305 259.11 552.418 257.57C551.578 256.03 550.435 254.84 548.988 254C547.588 253.16 545.978 252.74 544.158 252.74C542.338 252.74 540.705 253.16 539.258 254C537.811 254.84 536.668 256.03 535.828 257.57C534.988 259.11 534.568 260.977 534.568 263.17C534.568 265.317 534.988 267.183 535.828 268.77C536.668 270.31 537.811 271.5 539.258 272.34C540.705 273.18 542.338 273.6 544.158 273.6Z" fill="white"/>
<path d="M572.888 282V233H582.268L603.128 267.58H598.158L618.668 233H627.978L628.118 282H617.478L617.408 249.31H619.368L602.988 276.82H597.878L581.148 249.31H583.528V282H572.888Z" fill="white"/>
<path d="M638.974 282V244.34H649.894V282H638.974ZM644.434 239.09C642.427 239.09 640.794 238.507 639.534 237.34C638.274 236.173 637.644 234.727 637.644 233C637.644 231.273 638.274 229.827 639.534 228.66C640.794 227.493 642.427 226.91 644.434 226.91C646.44 226.91 648.074 227.47 649.334 228.59C650.594 229.663 651.224 231.063 651.224 232.79C651.224 234.61 650.594 236.127 649.334 237.34C648.12 238.507 646.487 239.09 644.434 239.09Z" fill="white"/>
<path d="M678.718 282.56C674.425 282.56 670.645 281.72 667.378 280.04C664.158 278.36 661.662 276.073 659.888 273.18C658.115 270.24 657.228 266.903 657.228 263.17C657.228 259.39 658.092 256.053 659.818 253.16C661.592 250.22 663.995 247.933 667.028 246.3C670.062 244.62 673.492 243.78 677.318 243.78C681.005 243.78 684.318 244.573 687.258 246.16C690.245 247.7 692.602 249.94 694.328 252.88C696.055 255.773 696.918 259.25 696.918 263.31C696.918 263.73 696.895 264.22 696.848 264.78C696.802 265.293 696.755 265.783 696.708 266.25H666.118V259.88H690.968L686.768 261.77C686.768 259.81 686.372 258.107 685.578 256.66C684.785 255.213 683.688 254.093 682.288 253.3C680.888 252.46 679.255 252.04 677.388 252.04C675.522 252.04 673.865 252.46 672.418 253.3C671.018 254.093 669.922 255.237 669.128 256.73C668.335 258.177 667.938 259.903 667.938 261.91V263.59C667.938 265.643 668.382 267.463 669.268 269.05C670.202 270.59 671.485 271.78 673.118 272.62C674.798 273.413 676.758 273.81 678.998 273.81C681.005 273.81 682.755 273.507 684.248 272.9C685.788 272.293 687.188 271.383 688.448 270.17L694.258 276.47C692.532 278.43 690.362 279.947 687.748 281.02C685.135 282.047 682.125 282.56 678.718 282.56Z" fill="white"/>
<path d="M719.588 282.56C715.155 282.56 711.702 281.44 709.228 279.2C706.755 276.913 705.518 273.53 705.518 269.05V236.01H716.438V268.91C716.438 270.497 716.858 271.733 717.698 272.62C718.538 273.46 719.682 273.88 721.128 273.88C722.855 273.88 724.325 273.413 725.538 272.48L728.478 280.18C727.358 280.973 726.005 281.58 724.418 282C722.878 282.373 721.268 282.56 719.588 282.56ZM699.708 253.58V245.18H725.818V253.58H699.708Z" fill="white"/>
<path d="M752.136 282.56C747.843 282.56 744.063 281.72 740.796 280.04C737.576 278.36 735.08 276.073 733.306 273.18C731.533 270.24 730.646 266.903 730.646 263.17C730.646 259.39 731.51 256.053 733.236 253.16C735.01 250.22 737.413 247.933 740.446 246.3C743.48 244.62 746.91 243.78 750.736 243.78C754.423 243.78 757.736 244.573 760.676 246.16C763.663 247.7 766.02 249.94 767.746 252.88C769.473 255.773 770.336 259.25 770.336 263.31C770.336 263.73 770.313 264.22 770.266 264.78C770.22 265.293 770.173 265.783 770.126 266.25H739.536V259.88H764.386L760.186 261.77C760.186 259.81 759.79 258.107 758.996 256.66C758.203 255.213 757.106 254.093 755.706 253.3C754.306 252.46 752.673 252.04 750.806 252.04C748.94 252.04 747.283 252.46 745.836 253.3C744.436 254.093 743.34 255.237 742.546 256.73C741.753 258.177 741.356 259.903 741.356 261.91V263.59C741.356 265.643 741.8 267.463 742.686 269.05C743.62 270.59 744.903 271.78 746.536 272.62C748.216 273.413 750.176 273.81 752.416 273.81C754.423 273.81 756.173 273.507 757.666 272.9C759.206 272.293 760.606 271.383 761.866 270.17L767.676 276.47C765.95 278.43 763.78 279.947 761.166 281.02C758.553 282.047 755.543 282.56 752.136 282.56Z" fill="white"/>
<path d="M774.193 282V274.65L793.093 256.8C794.586 255.447 795.683 254.233 796.383 253.16C797.083 252.087 797.549 251.107 797.783 250.22C798.063 249.333 798.203 248.517 798.203 247.77C798.203 245.81 797.526 244.317 796.173 243.29C794.866 242.217 792.929 241.68 790.363 241.68C788.309 241.68 786.396 242.077 784.623 242.87C782.896 243.663 781.426 244.9 780.213 246.58L771.953 241.26C773.819 238.46 776.433 236.243 779.793 234.61C783.153 232.977 787.026 232.16 791.413 232.16C795.053 232.16 798.226 232.767 800.933 233.98C803.686 235.147 805.809 236.803 807.303 238.95C808.843 241.097 809.613 243.663 809.613 246.65C809.613 248.237 809.403 249.823 808.983 251.41C808.609 252.95 807.816 254.583 806.603 256.31C805.436 258.037 803.709 259.973 801.423 262.12L785.743 276.89L783.573 272.76H811.223V282H774.193Z" fill="white"/>
<path d="M814.59 271.71V264.08L837.69 233H849.59L826.98 264.08L821.45 262.47H860.02V271.71H814.59ZM840.98 282V271.71L841.33 262.47V253.3H852.04V282H840.98Z" fill="white"/>
<path d="M132.216 168.943V165.798H133.81C133.938 165.798 134.077 165.835 134.227 165.909C134.378 165.98 134.506 166.091 134.611 166.241C134.719 166.389 134.773 166.577 134.773 166.804C134.773 167.034 134.717 167.23 134.607 167.392C134.496 167.551 134.361 167.672 134.202 167.754C134.045 167.837 133.898 167.878 133.759 167.878H132.608V167.366H133.545C133.639 167.366 133.74 167.32 133.848 167.226C133.959 167.132 134.014 166.991 134.014 166.804C134.014 166.611 133.959 166.48 133.848 166.412C133.74 166.344 133.645 166.31 133.562 166.31H132.906V168.943H132.216ZM134.116 167.46L134.901 168.943H134.142L133.375 167.46H134.116ZM133.409 170.818C132.938 170.818 132.496 170.73 132.084 170.554C131.672 170.378 131.31 170.134 130.997 169.821C130.685 169.509 130.44 169.146 130.264 168.734C130.088 168.322 130 167.881 130 167.409C130 166.938 130.088 166.496 130.264 166.084C130.44 165.672 130.685 165.31 130.997 164.997C131.31 164.685 131.672 164.44 132.084 164.264C132.496 164.088 132.938 164 133.409 164C133.881 164 134.322 164.088 134.734 164.264C135.146 164.44 135.509 164.685 135.821 164.997C136.134 165.31 136.378 165.672 136.554 166.084C136.73 166.496 136.818 166.938 136.818 167.409C136.818 167.881 136.73 168.322 136.554 168.734C136.378 169.146 136.134 169.509 135.821 169.821C135.509 170.134 135.146 170.378 134.734 170.554C134.322 170.73 133.881 170.818 133.409 170.818ZM133.409 170C133.886 170 134.321 169.884 134.713 169.651C135.105 169.418 135.418 169.105 135.651 168.713C135.884 168.321 136 167.886 136 167.409C136 166.932 135.884 166.497 135.651 166.105C135.418 165.713 135.105 165.401 134.713 165.168C134.321 164.935 133.886 164.818 133.409 164.818C132.932 164.818 132.497 164.935 132.105 165.168C131.713 165.401 131.401 165.713 131.168 166.105C130.935 166.497 130.818 166.932 130.818 167.409C130.818 167.886 130.935 168.321 131.168 168.713C131.401 169.105 131.713 169.418 132.105 169.651C132.497 169.884 132.932 170 133.409 170Z" fill="#1D3557"/>
</svg>
