<svg width="461" height="420" viewBox="0 0 461 420" fill="none" xmlns="http://www.w3.org/2000/svg">
<circle cx="133.5" cy="121.5" r="10.5" fill="#D9D9D9"/>
<circle cx="170.5" cy="121.5" r="10.5" fill="#D9D9D9"/>
<circle cx="207.5" cy="121.5" r="10.5" fill="#D9D9D9"/>
<path d="M294.5 181C309.312 181 321.734 191.224 325.099 205H358.5V193.015L387 212.5L358.5 231.985V221H324.838C321.128 234.268 308.952 244 294.5 244C277.103 244 263 229.897 263 212.5C263 195.103 277.103 181 294.5 181Z" fill="#2DAC61"/>
<path d="M339 90.5C350.874 90.5 360.5 100.126 360.5 112V185H352V194H347.5V112C347.5 107.306 343.694 103.5 339 103.5H119C114.306 103.5 110.5 107.306 110.5 112V313C110.5 317.694 114.306 321.5 119 321.5H339C343.694 321.5 347.5 317.694 347.5 313V232H352V241H360.5V313C360.5 324.874 350.874 334.5 339 334.5H119C107.126 334.5 97.5 324.874 97.5 313V112C97.5 100.126 107.126 90.5 119 90.5H339Z" fill="#465663"/>
<path d="M240.513 217.881V215.687L247.371 206.751H250.904L244.191 215.687L242.55 215.224H254V217.881H240.513ZM248.348 220.839V217.881L248.451 215.224V212.587H251.631V220.839H248.348Z" fill="#D9D9D9"/>
<path d="M228.52 220.839V218.726L234.131 213.594C234.575 213.205 234.9 212.856 235.108 212.547C235.316 212.239 235.454 211.957 235.524 211.702C235.607 211.447 235.648 211.212 235.648 210.997C235.648 210.434 235.447 210.005 235.046 209.709C234.658 209.401 234.083 209.247 233.321 209.247C232.711 209.247 232.143 209.361 231.617 209.589C231.104 209.817 230.668 210.172 230.308 210.655L227.855 209.126C228.41 208.321 229.185 207.683 230.183 207.214C231.18 206.744 232.33 206.509 233.633 206.509C234.713 206.509 235.655 206.684 236.459 207.033C237.276 207.368 237.906 207.844 238.35 208.462C238.807 209.079 239.036 209.817 239.036 210.675C239.036 211.132 238.973 211.588 238.849 212.044C238.738 212.487 238.502 212.956 238.142 213.453C237.796 213.949 237.283 214.506 236.604 215.123L231.949 219.37L231.305 218.182H239.514V220.839H228.52Z" fill="#D9D9D9"/>
<path d="M221.972 221C220.698 221 219.576 220.758 218.606 220.275C217.65 219.792 216.909 219.135 216.382 218.303C215.856 217.458 215.593 216.499 215.593 215.425C215.593 214.338 215.849 213.379 216.362 212.547C216.888 211.702 217.602 211.044 218.502 210.575C219.403 210.092 220.421 209.85 221.557 209.85C222.651 209.85 223.635 210.078 224.508 210.535C225.394 210.977 226.094 211.621 226.607 212.467C227.119 213.299 227.376 214.298 227.376 215.465C227.376 215.586 227.369 215.727 227.355 215.888C227.341 216.036 227.327 216.177 227.313 216.311H218.232V214.479H225.609L224.362 215.023C224.362 214.459 224.245 213.969 224.009 213.553C223.773 213.138 223.448 212.816 223.032 212.587C222.617 212.346 222.132 212.225 221.578 212.225C221.023 212.225 220.532 212.346 220.102 212.587C219.687 212.816 219.361 213.144 219.125 213.574C218.89 213.99 218.772 214.486 218.772 215.063V215.546C218.772 216.136 218.904 216.66 219.167 217.116C219.444 217.558 219.825 217.901 220.31 218.142C220.809 218.37 221.391 218.484 222.056 218.484C222.651 218.484 223.171 218.397 223.614 218.223C224.071 218.048 224.487 217.787 224.861 217.438L226.586 219.249C226.073 219.813 225.429 220.249 224.653 220.557C223.877 220.852 222.984 221 221.972 221Z" fill="#D9D9D9"/>
<path d="M212.31 221C210.994 221 209.969 220.678 209.234 220.034C208.5 219.377 208.133 218.404 208.133 217.116V207.616H211.375V217.075C211.375 217.532 211.499 217.887 211.749 218.142C211.998 218.384 212.338 218.504 212.767 218.504C213.28 218.504 213.716 218.37 214.076 218.102L214.949 220.316C214.617 220.544 214.215 220.718 213.744 220.839C213.287 220.946 212.809 221 212.31 221ZM206.408 212.668V210.253H214.159V212.668H206.408Z" fill="#D9D9D9"/>
<path d="M200.177 221C198.902 221 197.78 220.758 196.81 220.275C195.854 219.792 195.113 219.135 194.587 218.303C194.06 217.458 193.797 216.499 193.797 215.425C193.797 214.338 194.053 213.379 194.566 212.547C195.092 211.702 195.806 211.044 196.706 210.575C197.607 210.092 198.625 209.85 199.761 209.85C200.856 209.85 201.839 210.078 202.712 210.535C203.599 210.977 204.298 211.621 204.811 212.467C205.324 213.299 205.58 214.298 205.58 215.465C205.58 215.586 205.573 215.727 205.559 215.888C205.545 216.036 205.531 216.177 205.518 216.311H196.436V214.479H203.813L202.567 215.023C202.567 214.459 202.449 213.969 202.213 213.553C201.978 213.138 201.652 212.816 201.237 212.587C200.821 212.346 200.336 212.225 199.782 212.225C199.228 212.225 198.736 212.346 198.307 212.587C197.891 212.816 197.565 213.144 197.33 213.574C197.094 213.99 196.977 214.486 196.977 215.063V215.546C196.977 216.136 197.108 216.66 197.371 217.116C197.648 217.558 198.029 217.901 198.514 218.142C199.013 218.37 199.595 218.484 200.26 218.484C200.856 218.484 201.375 218.397 201.818 218.223C202.276 218.048 202.691 217.787 203.065 217.438L204.79 219.249C204.278 219.813 203.633 220.249 202.858 220.557C202.082 220.852 201.188 221 200.177 221Z" fill="#D9D9D9"/>
<path d="M188.378 220.839V210.011H191.62V220.839H188.378ZM189.999 208.502C189.403 208.502 188.918 208.334 188.544 207.999C188.17 207.663 187.983 207.247 187.983 206.751C187.983 206.255 188.17 205.839 188.544 205.503C188.918 205.168 189.403 205 189.999 205C190.594 205 191.079 205.161 191.453 205.483C191.827 205.792 192.014 206.194 192.014 206.691C192.014 207.214 191.827 207.65 191.453 207.999C191.093 208.334 190.608 208.502 189.999 208.502Z" fill="#D9D9D9"/>
<path d="M168.759 220.839V206.751H171.544L177.736 216.693H176.261L182.35 206.751H185.114L185.155 220.839H181.996L181.976 211.44H182.557L177.695 219.35H176.178L171.211 211.44H171.918V220.839H168.759Z" fill="#D9D9D9"/>
<path d="M160.791 221C159.807 221 158.962 220.799 158.256 220.396C157.549 219.994 157.009 219.383 156.635 218.565C156.261 217.733 156.074 216.686 156.074 215.425C156.074 214.151 156.268 213.104 156.655 212.286C157.057 211.467 157.611 210.857 158.318 210.454C159.024 210.052 159.849 209.85 160.791 209.85C161.844 209.85 162.786 210.078 163.617 210.535C164.462 210.991 165.127 211.635 165.612 212.467C166.111 213.299 166.36 214.285 166.36 215.425C166.36 216.552 166.111 217.532 165.612 218.364C165.127 219.195 164.462 219.846 163.617 220.316C162.786 220.772 161.844 221 160.791 221ZM154.183 220.839V205.906H157.424V212.205L157.217 215.405L157.279 218.625V220.839H154.183ZM160.23 218.424C160.77 218.424 161.248 218.303 161.664 218.062C162.093 217.82 162.433 217.478 162.682 217.035C162.945 216.579 163.077 216.042 163.077 215.425C163.077 214.795 162.945 214.258 162.682 213.815C162.433 213.372 162.093 213.03 161.664 212.789C161.248 212.547 160.77 212.426 160.23 212.426C159.689 212.426 159.205 212.547 158.775 212.789C158.346 213.03 158.006 213.372 157.757 213.815C157.507 214.258 157.383 214.795 157.383 215.425C157.383 216.042 157.507 216.579 157.757 217.035C158.006 217.478 158.346 217.82 158.775 218.062C159.205 218.303 159.689 218.424 160.23 218.424Z" fill="#D9D9D9"/>
<path d="M146.621 221C145.347 221 144.224 220.758 143.255 220.275C142.299 219.792 141.558 219.135 141.031 218.303C140.505 217.458 140.241 216.499 140.241 215.425C140.241 214.338 140.498 213.379 141.01 212.547C141.537 211.702 142.25 211.044 143.151 210.575C144.051 210.092 145.07 209.85 146.206 209.85C147.3 209.85 148.284 210.078 149.156 210.535C150.043 210.977 150.743 211.621 151.255 212.467C151.768 213.299 152.024 214.298 152.024 215.465C152.024 215.586 152.017 215.727 152.003 215.888C151.99 216.036 151.976 216.177 151.962 216.311H142.881V214.479H150.258L149.011 215.023C149.011 214.459 148.893 213.969 148.658 213.553C148.422 213.138 148.097 212.816 147.681 212.587C147.265 212.346 146.78 212.225 146.226 212.225C145.672 212.225 145.18 212.346 144.751 212.587C144.335 212.816 144.01 213.144 143.774 213.574C143.539 213.99 143.421 214.486 143.421 215.063V215.546C143.421 216.136 143.552 216.66 143.816 217.116C144.093 217.558 144.474 217.901 144.959 218.142C145.457 218.37 146.039 218.484 146.704 218.484C147.3 218.484 147.82 218.397 148.263 218.223C148.72 218.048 149.136 217.787 149.51 217.438L151.235 219.249C150.722 219.813 150.078 220.249 149.302 220.557C148.526 220.852 147.632 221 146.621 221Z" fill="#D9D9D9"/>
<path d="M121.759 220.839L117 206.751H120.491L124.627 219.229H122.881L127.203 206.751H130.321L134.477 219.229H132.794L137.033 206.751H140.254L135.495 220.839H131.879L128.201 209.891H129.157L125.375 220.839H121.759Z" fill="#D9D9D9"/>
<path d="M132.216 122.943V119.798H133.81C133.938 119.798 134.077 119.835 134.227 119.909C134.378 119.98 134.506 120.091 134.611 120.241C134.719 120.389 134.773 120.577 134.773 120.804C134.773 121.034 134.717 121.23 134.607 121.392C134.496 121.551 134.361 121.672 134.202 121.754C134.045 121.837 133.898 121.878 133.759 121.878H132.608V121.366H133.545C133.639 121.366 133.74 121.32 133.848 121.226C133.959 121.132 134.014 120.991 134.014 120.804C134.014 120.611 133.959 120.48 133.848 120.412C133.74 120.344 133.645 120.31 133.562 120.31H132.906V122.943H132.216ZM134.116 121.46L134.901 122.943H134.142L133.375 121.46H134.116ZM133.409 124.818C132.938 124.818 132.496 124.73 132.084 124.554C131.672 124.378 131.31 124.134 130.997 123.821C130.685 123.509 130.44 123.146 130.264 122.734C130.088 122.322 130 121.881 130 121.409C130 120.938 130.088 120.496 130.264 120.084C130.44 119.672 130.685 119.31 130.997 118.997C131.31 118.685 131.672 118.44 132.084 118.264C132.496 118.088 132.938 118 133.409 118C133.881 118 134.322 118.088 134.734 118.264C135.146 118.44 135.509 118.685 135.821 118.997C136.134 119.31 136.378 119.672 136.554 120.084C136.73 120.496 136.818 120.938 136.818 121.409C136.818 121.881 136.73 122.322 136.554 122.734C136.378 123.146 136.134 123.509 135.821 123.821C135.509 124.134 135.146 124.378 134.734 124.554C134.322 124.73 133.881 124.818 133.409 124.818ZM133.409 124C133.886 124 134.321 123.884 134.713 123.651C135.105 123.418 135.418 123.105 135.651 122.713C135.884 122.321 136 121.886 136 121.409C136 120.932 135.884 120.497 135.651 120.105C135.418 119.713 135.105 119.401 134.713 119.168C134.321 118.935 133.886 118.818 133.409 118.818C132.932 118.818 132.497 118.935 132.105 119.168C131.713 119.401 131.401 119.713 131.168 120.105C130.935 120.497 130.818 120.932 130.818 121.409C130.818 121.886 130.935 122.321 131.168 122.713C131.401 123.105 131.713 123.418 132.105 123.651C132.497 123.884 132.932 124 133.409 124Z" fill="#1D3557"/>
</svg>
