<svg width="384" height="333" viewBox="0 0 384 333" fill="none" xmlns="http://www.w3.org/2000/svg">
<circle cx="83" cy="76" r="10.5" fill="#2DAC61"/>
<circle cx="120" cy="76" r="10.5" fill="#2DAC61"/>
<circle cx="157" cy="76" r="10.5" fill="#2DAC61"/>
<path d="M244 135.5C258.812 135.5 271.234 145.724 274.599 159.5H308V147.515L336.5 167L308 186.485V175.5H274.338C270.628 188.768 258.452 198.5 244 198.5C226.603 198.5 212.5 184.397 212.5 167C212.5 149.603 226.603 135.5 244 135.5Z" fill="#2DAC61"/>
<path d="M288.5 45C300.374 45 310 54.6259 310 66.5V139.5H301.5V148.5H297V66.5C297 61.8056 293.194 58 288.5 58H68.5C63.8056 58 60 61.8056 60 66.5V267.5C60 272.194 63.8056 276 68.5 276H288.5C293.194 276 297 272.194 297 267.5V186.5H301.5V195.5H310V267.5C310 279.374 300.374 289 288.5 289H68.5C56.6259 289 47 279.374 47 267.5V66.5C47 54.6259 56.6259 45 68.5 45H288.5Z" fill="#266BB4"/>
<path d="M81.7159 77.4432V74.2983H83.3097C83.4375 74.2983 83.5767 74.3352 83.7273 74.4091C83.8778 74.4801 84.0057 74.5909 84.1108 74.7415C84.2188 74.8892 84.2727 75.0767 84.2727 75.304C84.2727 75.5341 84.2173 75.7301 84.1065 75.892C83.9957 76.0511 83.8608 76.1719 83.7017 76.2543C83.5455 76.3366 83.3977 76.3778 83.2585 76.3778H82.108V75.8665H83.0455C83.1392 75.8665 83.2401 75.8196 83.348 75.7259C83.4588 75.6321 83.5142 75.4915 83.5142 75.304C83.5142 75.1108 83.4588 74.9801 83.348 74.9119C83.2401 74.8438 83.1449 74.8097 83.0625 74.8097H82.4062V77.4432H81.7159ZM83.6165 75.9602L84.4006 77.4432H83.642L82.875 75.9602H83.6165ZM82.9091 79.3182C82.4375 79.3182 81.9957 79.2301 81.5838 79.054C81.1719 78.8778 80.8097 78.6335 80.4972 78.321C80.1847 78.0085 79.9403 77.6463 79.7642 77.2344C79.5881 76.8224 79.5 76.3807 79.5 75.9091C79.5 75.4375 79.5881 74.9957 79.7642 74.5838C79.9403 74.1719 80.1847 73.8097 80.4972 73.4972C80.8097 73.1847 81.1719 72.9403 81.5838 72.7642C81.9957 72.5881 82.4375 72.5 82.9091 72.5C83.3807 72.5 83.8224 72.5881 84.2344 72.7642C84.6463 72.9403 85.0085 73.1847 85.321 73.4972C85.6335 73.8097 85.8778 74.1719 86.054 74.5838C86.2301 74.9957 86.3182 75.4375 86.3182 75.9091C86.3182 76.3807 86.2301 76.8224 86.054 77.2344C85.8778 77.6463 85.6335 78.0085 85.321 78.321C85.0085 78.6335 84.6463 78.8778 84.2344 79.054C83.8224 79.2301 83.3807 79.3182 82.9091 79.3182ZM82.9091 78.5C83.3864 78.5 83.821 78.3835 84.2131 78.1506C84.6051 77.9176 84.9176 77.6051 85.1506 77.2131C85.3835 76.821 85.5 76.3864 85.5 75.9091C85.5 75.4318 85.3835 74.9972 85.1506 74.6051C84.9176 74.2131 84.6051 73.9006 84.2131 73.6676C83.821 73.4347 83.3864 73.3182 82.9091 73.3182C82.4318 73.3182 81.9972 73.4347 81.6051 73.6676C81.2131 73.9006 80.9006 74.2131 80.6676 74.6051C80.4347 74.9972 80.3182 75.4318 80.3182 75.9091C80.3182 76.3864 80.4347 76.821 80.6676 77.2131C80.9006 77.6051 81.2131 77.9176 81.6051 78.1506C81.9972 78.3835 82.4318 78.5 82.9091 78.5Z" fill="#266BB4"/>
</svg>
